<?xml version="1.0" encoding="UTF-8" standalone="no"?>
<svg width="80mm" height="80mm" viewBox="0 0 80 80" version="1.1" id="svg5" xmlns="http://www.w3.org/2000/svg" xmlns:svg="http://www.w3.org/2000/svg">
<g id="checkers">
<rect width="10" height="10" x="0" y="0"></rect>
<rect width="10" height="10" x="20" y="0"></rect>
<rect width="10" height="10" x="40" y="0"></rect>
<rect width="10" height="10" x="60" y="0"></rect>
<rect width="10" height="10" x="10" y="10"></rect>
<rect width="10" height="10" x="30" y="10"></rect>
<rect width="10" height="10" x="50" y="10"></rect>
<rect width="10" height="10" x="70" y="10"></rect>
<rect width="10" height="10" x="0" y="20"></rect>
<rect width="10" height="10" x="20" y="20"></rect>
<rect width="10" height="10" x="40" y="20"></rect>
<rect width="10" height="10" x="60" y="20"></rect>
<rect width="10" height="10" x="10" y="30"></rect>
<rect width="10" height="10" x="30" y="30"></rect>
<rect width="10" height="10" x="50" y="30"></rect>
<rect width="10" height="10" x="70" y="30"></rect>
<rect width="10" height="10" x="0" y="40"></rect>
<rect width="10" height="10" x="20" y="40"></rect>
<rect width="10" height="10" x="40" y="40"></rect>
<rect width="10" height="10" x="60" y="40"></rect>
<rect width="10" height="10" x="10" y="50"></rect>
<rect width="10" height="10" x="30" y="50"></rect>
<rect width="10" height="10" x="50" y="50"></rect>
<rect width="10" height="10" x="70" y="50"></rect>
<rect width="10" height="10" x="0" y="60"></rect>
<rect width="10" height="10" x="20" y="60"></rect>
<rect width="10" height="10" x="40" y="60"></rect>
<rect width="10" height="10" x="60" y="60"></rect>
<rect width="10" height="10" x="10" y="70"></rect>
<rect width="10" height="10" x="30" y="70"></rect>
<rect width="10" height="10" x="50" y="70"></rect>
<rect width="10" height="10" x="70" y="70"></rect>

</g>
</svg>
